<svg width="24" height="24" viewBox="0 0 24 24" fill="none" xmlns="http://www.w3.org/2000/svg">
<g clip-path="url(#clip0_1047_253)">
<path d="M3 5.21763C3 4.54506 3.55887 4 4.24844 4H18.7516C19.4411 4 20 4.54506 20 5.21763V19.7824C20 20.4549 19.4411 21 18.7516 21H4.24844C3.55887 21 3 20.4549 3 19.7824V5.21763ZM8.25194 18.2311V10.5546H5.70088V18.2311H8.25194ZM6.97694 9.50588C7.86625 9.50588 8.41981 8.91725 8.41981 8.17988C8.40387 7.42656 7.86731 6.85388 6.99394 6.85388C6.12056 6.85388 5.55 7.42763 5.55 8.17988C5.55 8.91725 6.10356 9.50588 6.95994 9.50588H6.97694ZM12.1917 18.2311V13.9439C12.1917 13.7144 12.2087 13.4849 12.2767 13.3213C12.4605 12.8634 12.8802 12.3884 13.5857 12.3884C14.509 12.3884 14.8777 13.0918 14.8777 14.1246V18.2311H17.4287V13.8281C17.4287 11.4694 16.1708 10.3729 14.492 10.3729C13.1384 10.3729 12.5317 11.1166 12.1917 11.6404V11.667H12.1747L12.1917 11.6404V10.5546H9.64169C9.67356 11.2749 9.64169 18.2311 9.64169 18.2311H12.1917Z" fill="#7D7D7D"/>
</g>
<defs>
<clipPath id="clip0_1047_253">
<rect width="17" height="17" fill="white" transform="translate(3 4)"/>
</clipPath>
</defs>
</svg>
